<svg xmlns="http://www.w3.org/2000/svg" xmlns:xlink="http://www.w3.org/1999/xlink" viewBox="0 0 1920 1080"><defs><style>.cls-1{isolation:isolate;}.cls-2{fill:#9fd8ff;}.cls-3{fill:#23374f;}.cls-23,.cls-24,.cls-26,.cls-27,.cls-4,.cls-6{opacity:0.47;mix-blend-mode:hard-light;}.cls-4{fill:url(#linear-gradient);}.cls-5{fill:#2b4263;}.cls-6{fill:url(#linear-gradient-2);}.cls-7{fill:#3b5a8c;}.cls-8{fill:#51221d;}.cls-9{fill:#441c19;}.cls-10{fill:#381815;}.cls-11{fill:#4ca860;}.cls-12{fill:#479963;}.cls-13{fill:#357c53;}.cls-14{fill:#30704a;}.cls-15{fill:#285b3d;}.cls-16{fill:#2d6644;}.cls-17{fill:#71293d;}.cls-18{fill:#932f49;}.cls-19{fill:#984668;}.cls-20{fill:#64293d;}.cls-21{fill:#8c4668;}.cls-22{fill:#96637a;}.cls-23{fill:url(#linear-gradient-3);}.cls-24{fill:url(#linear-gradient-4);}.cls-25{fill:#441f19;}.cls-26{fill:url(#linear-gradient-5);}.cls-27{fill:url(#linear-gradient-6);}.cls-28{fill:#383838;}</style><linearGradient id="linear-gradient" x1="1104.4" y1="844.05" x2="1104.4" y2="-344.95" gradientTransform="translate(1150.45 91.43) scale(0.21 1)" gradientUnits="userSpaceOnUse"><stop offset="0.16" stop-color="#fff" stop-opacity="0"/><stop offset="1" stop-color="#fff" stop-opacity="0.6"/></linearGradient><linearGradient id="linear-gradient-2" x1="1524.59" y1="779.06" x2="1524.59" y2="-409.94" gradientTransform="translate(963.59 181.54) scale(0.42 1)" xlink:href="#linear-gradient"/><linearGradient id="linear-gradient-3" x1="417.34" y1="1030.48" x2="417.34" y2="-158.52" gradientTransform="translate(487.24 -153.82) scale(0.67 1)" xlink:href="#linear-gradient"/><linearGradient id="linear-gradient-4" x1="226.72" y1="1269.6" x2="226.72" y2="80.6" gradientTransform="translate(-44.72 -380.6)" xlink:href="#linear-gradient"/><linearGradient id="linear-gradient-5" x1="400.19" y1="1693.75" x2="400.19" y2="504.75" gradientTransform="translate(-355.89 -804.07) scale(1.61 1.35)" gradientUnits="userSpaceOnUse"><stop offset="0" stop-color="#fff" stop-opacity="0"/><stop offset="0.7" stop-color="#fff" stop-opacity="0.6"/></linearGradient><linearGradient id="linear-gradient-6" x1="1181.66" y1="1285.05" x2="1181.66" y2="96.05" gradientTransform="translate(-95.35 -200.91) scale(1 1.17)" xlink:href="#linear-gradient"/></defs><g class="cls-1"><g id="Layer_13" data-name="Layer 13"><rect class="cls-2" x="-116" y="-94" width="2405" height="798"/></g><g id="Layer_12" data-name="Layer 12"><polygon class="cls-3" points="1438.31 329.74 1397.89 464.39 1478.73 464.39 1438.31 329.74"/><polygon class="cls-3" points="898.5 351.76 848.98 486.42 948.02 486.42 898.5 351.76"/><polygon class="cls-3" points="840.86 359.86 804.32 481.76 877.4 481.76 840.86 359.86"/><polygon class="cls-3" points="795.25 378.76 752.74 494.77 837.76 494.77 795.25 378.76"/><polygon class="cls-3" points="582.83 379.86 536.84 505.79 628.83 505.79 582.83 379.86"/><polygon class="cls-3" points="685.28 373.76 646.86 478.78 723.71 478.78 685.28 373.76"/><polygon class="cls-3" points="1360.37 314.38 1310.86 449.04 1409.89 449.04 1360.37 314.38"/><polygon class="cls-3" points="1302.73 322.48 1266.2 444.38 1339.27 444.38 1302.73 322.48"/><polygon class="cls-3" points="1324.03 354.61 1289.33 470.62 1358.73 470.62 1324.03 354.61"/><polygon class="cls-3" points="1257.12 341.38 1214.61 457.39 1299.63 457.39 1257.12 341.38"/><polygon class="cls-3" points="1090.77 356.85 1053.22 482.77 1128.32 482.77 1090.77 356.85"/><polygon class="cls-3" points="1044.71 342.49 998.71 468.42 1090.71 468.42 1044.71 342.49"/><polygon class="cls-3" points="1207.64 348.36 1176.27 453.38 1239.01 453.38 1207.64 348.36"/><polygon class="cls-3" points="1147.16 336.38 1108.73 441.41 1185.59 441.41 1147.16 336.38"/><polygon class="cls-3" points="996.79 350.38 962.85 464.38 1030.73 464.38 996.79 350.38"/><polygon class="cls-3" points="955.15 337.38 913.57 451.38 996.73 451.38 955.15 337.38"/><polygon class="cls-3" points="1596.5 315.76 1546.98 450.42 1646.02 450.42 1596.5 315.76"/><polygon class="cls-3" points="1538.86 323.86 1502.32 445.76 1575.4 445.76 1538.86 323.86"/><polygon class="cls-3" points="1493.25 342.76 1450.74 458.77 1535.76 458.77 1493.25 342.76"/><polygon class="cls-3" points="1280.83 343.86 1234.84 469.79 1326.83 469.79 1280.83 343.86"/><polygon class="cls-3" points="1383.29 337.76 1344.86 442.78 1421.71 442.78 1383.29 337.76"/><polygon class="cls-3" points="1955.12 305.38 1912.61 421.39 1997.63 421.39 1955.12 305.38"/><polygon class="cls-3" points="1788.77 320.85 1751.22 446.77 1826.32 446.77 1788.77 320.85"/><polygon class="cls-3" points="1742.71 306.49 1696.71 432.42 1788.71 432.42 1742.71 306.49"/><polygon class="cls-3" points="1905.64 312.36 1874.27 417.38 1937.01 417.38 1905.64 312.36"/><polygon class="cls-3" points="1845.16 300.38 1806.73 405.41 1883.59 405.41 1845.16 300.38"/><polygon class="cls-3" points="1694.79 314.38 1660.85 428.38 1728.73 428.38 1694.79 314.38"/><polygon class="cls-3" points="1653.15 301.38 1611.57 415.38 1694.73 415.38 1653.15 301.38"/><polygon class="cls-3" points="796.31 359.74 755.89 494.39 836.73 494.39 796.31 359.74"/><polygon class="cls-3" points="256.5 381.76 206.98 516.41 306.02 516.41 256.5 381.76"/><polygon class="cls-3" points="198.86 389.86 162.32 511.76 235.4 511.76 198.86 389.86"/><polygon class="cls-3" points="153.25 408.76 110.74 524.77 195.76 524.77 153.25 408.76"/><polygon class="cls-3" points="43.28 403.76 4.86 508.78 81.71 508.78 43.28 403.76"/><polygon class="cls-3" points="718.37 344.38 668.86 479.04 767.89 479.04 718.37 344.38"/><polygon class="cls-3" points="660.73 352.48 624.2 474.38 697.27 474.38 660.73 352.48"/><polygon class="cls-3" points="682.03 384.61 647.33 500.62 716.73 500.62 682.03 384.61"/><polygon class="cls-3" points="615.12 371.38 572.61 487.39 657.63 487.39 615.12 371.38"/><polygon class="cls-3" points="448.77 386.85 411.22 512.77 486.32 512.77 448.77 386.85"/><polygon class="cls-3" points="402.71 372.49 356.71 498.42 448.71 498.42 402.71 372.49"/><polygon class="cls-3" points="565.64 378.36 534.27 483.38 597.01 483.38 565.64 378.36"/><polygon class="cls-3" points="505.16 366.38 466.73 471.41 543.59 471.41 505.16 366.38"/><polygon class="cls-3" points="354.79 380.38 320.85 494.38 388.73 494.38 354.79 380.38"/><polygon class="cls-3" points="313.15 367.38 271.57 481.38 354.73 481.38 313.15 367.38"/><polygon class="cls-3" points="1415.58 364.36 1375.16 499.01 1456 499.01 1415.58 364.36"/><polygon class="cls-3" points="875.77 386.38 826.25 521.03 925.29 521.03 875.77 386.38"/><polygon class="cls-3" points="818.13 394.47 781.59 516.38 854.67 516.38 818.13 394.47"/><polygon class="cls-3" points="772.52 413.38 730.01 529.39 815.03 529.39 772.52 413.38"/><polygon class="cls-3" points="560.1 414.48 514.1 540.41 606.1 540.41 560.1 414.48"/><polygon class="cls-3" points="662.55 408.38 624.13 513.4 700.98 513.4 662.55 408.38"/><polygon class="cls-3" points="1337.64 349 1288.12 483.66 1387.16 483.66 1337.64 349"/><polygon class="cls-3" points="1280 357.1 1243.46 479 1316.54 479 1280 357.1"/><polygon class="cls-3" points="1301.3 389.23 1266.6 505.24 1336 505.24 1301.3 389.23"/><polygon class="cls-3" points="1234.39 376 1191.88 492.01 1276.9 492.01 1234.39 376"/><polygon class="cls-3" points="1068.04 391.46 1030.49 517.39 1105.59 517.39 1068.04 391.46"/><polygon class="cls-3" points="1021.98 377.11 975.98 503.03 1067.98 503.03 1021.98 377.11"/><polygon class="cls-3" points="1184.91 382.98 1153.54 488 1216.28 488 1184.91 382.98"/><polygon class="cls-3" points="1124.43 371 1086 476.02 1162.85 476.02 1124.43 371"/><polygon class="cls-3" points="974.06 385 940.12 499 1008 499 974.06 385"/><polygon class="cls-3" points="932.42 372 890.84 486 974 486 932.42 372"/><path class="cls-3" d="M-157,605c63,14,746-71,992-115s969,19,1127,68,111,454,108,451S274,889,274,889L-157,694Z"/><polygon class="cls-3" points="229 453 2044 398 2079 724 100 644 229 453"/></g><g id="Layer_17" data-name="Layer 17"><rect class="cls-4" x="1367.6" y="-253.51" width="33.92" height="1189" transform="translate(242.13 -512.32) rotate(22.92)"/></g><g id="Layer_11" data-name="Layer 11"><polygon class="cls-3" points="1243.91 84 1135.9 682 1351.93 682 1243.91 84"/><polygon class="cls-3" points="1466.97 23 1333.64 744 1600.3 744 1466.97 23"/><polygon class="cls-3" points="870.6 -63 737.26 658 1003.93 658 870.6 -63"/><polygon class="cls-3" points="624.99 31 516.97 629 733 629 624.99 31"/><polygon class="cls-3" points="1664.04 -148 1530.71 573 1797.37 573 1664.04 -148"/><polygon class="cls-3" points="149.67 -146 16.34 575 283 575 149.67 -146"/></g><g id="Layer_10" data-name="Layer 10"><path class="cls-5" d="M1738.11,437.67l-4.46,137.09,3.77,45.57L1710.83,623l4.38-92,13-71.69c-20.08,32.72-44.15,44.24-67,45.32,12.24-18.42,15.51-42.76,15.51-42.76-13.81,36.22-51.08,36.93-51.08,36.93a138.22,138.22,0,0,1-20.49-9.3L1623.71,408h0c46.5-15.81,94.5-52.95,95.48-53.72-20.37,14.3-57.15,15.09-86.17,12.9l13.69-60h0c26.42-6.87,47.89-27.61,48.24-27.95a148,148,0,0,1-43.79,8.45l17-74.6,68,12.35-2.55-23.44L1674,187.62l5-21.81c5.29-1.84,14.52-5.78,26.3-13.72,18.91-12.74-7.31-27.71-7.31-27.71l-10.4,3.78,89.24-391.23,1.46,132.63s29.22,185.59,58.11,370.11c-20.21-4.48-43.66-11.27-43.66-11.27,7.67,5.57,31.85,12.44,44.41,16q1.77,11.36,3.55,22.69c-39.84-3.56-78.81-14.12-78.81-14.12,23.3,24.08,55.53,35.89,83.11,41.65,3.1,19.82,6.16,39.41,9.15,58.52l-43.55-13.31a116.26,116.26,0,0,1-23.49-35.9,114.67,114.67,0,0,0,3.78,29.88l-46.62-14.24-.25,60,117.28,19.49c5.14,32.94,9.92,63.69,14.12,90.83C1844.15,505.61,1796,508.6,1738.11,437.67Z"/><path class="cls-5" d="M1350.27,437.37l-4.45,137.08,3.76,45.57L1323,622.68l4.38-92,13-71.69c-20.08,32.72-44.15,44.25-67.05,45.32,12.24-18.42,15.51-42.76,15.51-42.76-13.81,36.23-51.08,36.93-51.08,36.93a138.22,138.22,0,0,1-20.49-9.29l18.59-81.52h0c46.5-15.81,94.5-52.95,95.48-53.71-20.37,14.29-57.15,15.09-86.17,12.9l13.69-60h0c26.42-6.87,47.89-27.61,48.24-27.95a148,148,0,0,1-43.79,8.45l17-74.6,68,12.35-2.55-23.45-59.69-14.31,5-21.81c5.29-1.85,14.52-5.79,26.3-13.72,18.91-12.74-7.31-27.71-7.31-27.71l-10.4,3.78,89.24-391.23,1.46,132.62s29.22,185.6,58.11,370.12c-20.21-4.48-43.66-11.27-43.66-11.27,7.67,5.57,31.85,12.43,44.41,16q1.77,11.37,3.55,22.7C1413,263.27,1374,252.71,1374,252.71c23.3,24.08,55.53,35.89,83.11,41.66l9.15,58.51-43.55-13.3a116.39,116.39,0,0,1-23.49-35.9,114.67,114.67,0,0,0,3.78,29.88l-46.62-14.25-.25,60,117.28,19.49c5.14,32.95,9.92,63.7,14.12,90.84C1456.31,505.31,1408.13,508.29,1350.27,437.37Z"/><path class="cls-5" d="M975.94,408.62l20.23,135.65,11.89,44.16-25.68,7.38-12.21-91.29-.07-72.87c-13.87,35.8-35.48,51.46-57.81,56.63,8.73-20.32,7.57-44.85,7.57-44.85-7.08,38.11-43.62,45.5-43.62,45.5a137.87,137.87,0,0,1-21.83-5.47l3.66-83.53h0c42.9-23.91,83.45-69.06,84.28-70-17.47,17.72-53.51,25.1-82.45,28.16l2.69-61.48h0c24.75-11.5,42.15-35.76,42.43-36.16a147.5,147.5,0,0,1-41.55,16.18l3.34-76.44,69.15-.07-6.73-22.61L868,174.15l1-22.35c4.87-2.77,13.25-8.3,23.41-18.22,16.32-15.93-12.17-26-12.17-26l-9.55,5.59,17.54-400.9,25.25,130.21S975.48,19.86,1037,196.2c-20.68-.78-45-3.26-45-3.26,8.54,4.11,33.57,6.52,46.57,7.82q3.78,10.86,7.56,21.69c-39.83,3.64-80.06.25-80.06.25,27.24,19.51,61.08,25.34,89.24,26.06,6.61,18.94,13.14,37.65,19.5,55.92l-45.23-5.27a116.3,116.3,0,0,1-29.55-31.1,115.66,115.66,0,0,0,9.08,28.72l-48.42-5.65,10.53,59,118.87-1.89c11,31.48,21.2,60.88,30.2,86.82C1092.46,456.41,1045.6,468,975.94,408.62Z"/><path class="cls-5" d="M1702.26,275.54l-4.46,137.09,3.77,45.57L1675,460.85l4.38-92,13-71.69c-20.08,32.72-44.15,44.24-67.05,45.32,12.24-18.42,15.51-42.76,15.51-42.76-13.81,36.22-51.08,36.93-51.08,36.93a138.22,138.22,0,0,1-20.49-9.3l18.59-81.52h0c46.5-15.81,94.49-53,95.48-53.72-20.37,14.3-57.15,15.09-86.17,12.9l13.69-60h0c26.41-6.87,47.89-27.61,48.24-27.95a148,148,0,0,1-43.79,8.45l17-74.6,68,12.35-2.56-23.44-59.68-14.32,5-21.81c5.29-1.84,14.52-5.78,26.3-13.72,18.91-12.74-7.31-27.71-7.31-27.71L1651.69-34l89.24-391.23,1.46,132.63s29.22,185.59,58.1,370.11c-20.2-4.48-43.65-11.27-43.65-11.27,7.67,5.57,31.85,12.44,44.4,16q1.79,11.36,3.55,22.69C1765,101.45,1726,90.89,1726,90.89c23.3,24.08,55.53,35.89,83.11,41.65,3.1,19.82,6.16,39.41,9.14,58.52l-43.54-13.31a116,116,0,0,1-23.49-35.9,114.67,114.67,0,0,0,3.78,29.88l-46.63-14.25-.24,60,117.28,19.49c5.14,32.94,9.92,63.69,14.12,90.83C1808.3,343.48,1760.12,346.47,1702.26,275.54Z"/><path class="cls-5" d="M639.42,316.24,635,453.32l3.77,45.57-26.59,2.66,4.38-92,13-71.69c-20.08,32.72-44.15,44.25-67,45.32C574.73,364.75,578,340.41,578,340.41c-13.81,36.23-51.08,36.93-51.08,36.93a137.21,137.21,0,0,1-20.49-9.3L525,286.53h0c46.5-15.81,94.5-52.95,95.48-53.71-20.37,14.29-57.15,15.09-86.17,12.89l13.69-60h0c26.42-6.87,47.89-27.61,48.24-27.95a148,148,0,0,1-43.79,8.45l17-74.6,68,12.35L635,80.5,575.28,66.19l5-21.81c5.29-1.85,14.52-5.79,26.3-13.72C625.47,17.92,599.25,3,599.25,3l-10.4,3.78L678.09-384.5l1.46,132.62s29.22,185.6,58.1,370.12C717.45,113.76,694,107,694,107c7.67,5.57,31.85,12.43,44.4,16q1.79,11.37,3.55,22.7c-39.83-3.57-78.8-14.13-78.8-14.13,23.3,24.08,55.53,35.89,83.11,41.66,3.1,19.82,6.16,39.4,9.14,58.51l-43.54-13.3a116.39,116.39,0,0,1-23.49-35.9,114.67,114.67,0,0,0,3.78,29.88l-46.63-14.25-.24,60,117.28,19.49c5.14,32.95,9.92,63.7,14.12,90.84C745.46,384.18,697.28,387.16,639.42,316.24Z"/><path class="cls-5" d="M265.09,287.49l20.23,135.65,11.89,44.16-25.68,7.38-12.21-91.29-.07-72.87c-13.87,35.8-35.48,51.46-57.82,56.62,8.74-20.31,7.58-44.84,7.58-44.84-7.08,38.11-43.62,45.5-43.62,45.5a137.87,137.87,0,0,1-21.83-5.47l3.66-83.53h0c42.9-23.91,83.45-69.06,84.28-70C214,226.53,178,233.91,149.05,237l2.69-61.48h0c24.75-11.5,42.15-35.76,42.43-36.16a147.48,147.48,0,0,1-41.56,16.18L156,79.06,225.1,79l-6.72-22.61L157.1,53l1-22.35c4.87-2.77,13.25-8.3,23.41-18.22C197.8-3.48,169.32-13.5,169.32-13.5l-9.55,5.59,17.54-400.9L202.56-278.6S264.63-101.27,326.18,75.07c-20.68-.78-45-3.26-45-3.26,8.54,4.11,33.56,6.52,46.56,7.82l7.57,21.69c-39.83,3.64-80.06.25-80.06.25,27.24,19.5,61.08,25.34,89.24,26.06,6.61,18.94,13.14,37.65,19.5,55.92l-45.23-5.27a116.3,116.3,0,0,1-29.55-31.1,114.6,114.6,0,0,0,9.08,28.71l-48.42-5.64,10.53,59L379.3,227.4c11,31.48,21.19,60.88,30.2,86.82C381.6,335.28,334.75,346.87,265.09,287.49Z"/></g><g id="Layer_15" data-name="Layer 15"><rect class="cls-6" x="1576.87" y="-228.4" width="67.93" height="1189" transform="translate(269.78 -598.46) rotate(22.92)"/></g><g id="Layer_9" data-name="Layer 9"><ellipse class="cls-7" cx="1470" cy="551.5" rx="163" ry="171.5"/><ellipse class="cls-7" cx="493.5" cy="530" rx="122.5" ry="114"/><ellipse class="cls-7" cx="1043.5" cy="587" rx="143.5" ry="114"/><ellipse class="cls-7" cx="1255" cy="584.5" rx="163" ry="149.5"/><circle class="cls-7" cx="117" cy="475" r="175"/></g><g id="Layer_8" data-name="Layer 8"><path class="cls-8" d="M487.73,392.35c-11.6,22.68-115.2,68.85-176,18.9l-19.87-82.8a49.73,49.73,0,0,0,5.85-8.07l-9-49.11c-18.48,19-65.13,23.74-102.82,24.19q4.81-15.84,9.77-32.11C246.22,97,304.24-93.79,305.8-98.69L358,42c-20.95,8.2-43,15.65-55.26,14.71l7.74,42.24s31.71-7,61.64-18.91l36.32,97.82L422,214.34l18.77,50.55c-64.17,1.43-126.45-1.8-126.45-1.8,27.38,31,90.29,43.36,143.63,48.08Z"/><path class="cls-9" d="M1126.66,472.72l22.14,162.13,1.62,54.41,29.41.55-16.38-108.68-23.26-83.74c26.07,36.84,53.84,48.15,79,47.19-15.7-20.65-22.34-49.19-22.34-49.19,19.66,41.61,60.51,38.8,60.51,38.8a142.93,142.93,0,0,0,21.23-13L1248,426.31,1242.81,413c-52.83-14.2-104.8-40.22-106-41,24.07,15,64.39,12.3,95.84,6.87L1211.42,321h0c-29.75-5.56-57.11-40-57.53-40.4a153.11,153.11,0,0,0,48.94,5.74l-28-86.8L1102,220.79l-.16-28,63.45-22.81-8.18-25.38c-6-1.67-34.49-11.42-48.36-19.68-22.28-13.26,22.37-27.6,22.37-27.6l11.85,3.47L996.12-354.49l15.11,157.42s-8.57,223-16.92,444.59c21.53-7.29,46.31-17.63,46.31-17.63-7.68,7.35-33.25,17.86-46.53,23.37q-.51,13.64-1,27.26c43.11-8.13,84.39-24.46,84.39-24.46-22.44,30.84-56.2,48-85.63,57.53-.9,23.8-1.77,47.33-2.63,70.28l45.94-20A138.23,138.23,0,0,0,1056.3,319a147.36,147.36,0,0,1-.37,35.8l49.18-21.45,7.82,71.09L987.16,439c-1.47,39.57-2.83,76.5-4,109.09C1019.28,563.65,1072.33,562.49,1126.66,472.72Z"/><path class="cls-9" d="M1724,336.83l-23.74,161.76L1698.16,553l-29.81-.28,17.48-108.39,24.24-83.22c-26.72,36.16-55,46.7-80.46,45,16.08-20.24,23-48.64,23-48.64-20.26,41.12-61.64,37.14-61.64,37.14A148.94,148.94,0,0,1,1569.6,381l31.77-94.14h0c53.67-12.72,111.91-50.51,113.11-51.29-24.52,14.3-65.36,10.5-97.2,4.16l23.39-69.29h0c30.2-4.73,56.82-26.52,57.25-26.88a155.36,155.36,0,0,1-49.65,4.36l29.08-86.15L1751,85.18l.39-28.1-64.13-24.65,8.5-25.19c6.11-1.5,16.88-5,31-12.85,22.69-12.65-4.3-33.76-4.3-33.76l-12,3.13L1862.93-488l-16.57,157.25s6.89,223.57,13.57,445.81c-21.76-7.91-46.8-19-46.8-19,7.73,7.58,33.57,18.84,47,24.73q.41,13.68.82,27.34c-43.63-9.37-85.34-26.9-85.34-26.9,22.5,31.52,56.58,49.67,86.33,60.06.71,23.87,1.41,47.45,2.1,70.47l-46.4-21.38a140.35,140.35,0,0,1-21.09-45.54,146.59,146.59,0,0,0,.08,35.87l-49.67-22.89-8.5,71L1865.65,307c1.17,39.68,2.24,76.71,3.17,109.39C1832.09,431,1778.33,428.28,1724,336.83Z"/><polygon class="cls-10" points="1654.84 614.14 1758.58 -133.52 1805.37 -145.47 1709.62 617.53 1654.84 614.14"/><polygon class="cls-10" points="320.95 642.14 279.15 -121.52 325.94 -133.47 375.73 645.53 320.95 642.14"/><polygon class="cls-10" points="1103.7 620.02 1037 -143.64 1075.97 -150.8 1150.65 628.2 1103.7 620.02"/><path class="cls-8" d="M1384.35,418.15c12.12,22.68,120.32,68.85,183.83,18.9l20.76-82.8a49.8,49.8,0,0,1-6.11-8.07l9.4-49.11c19.29,19,68,23.74,107.38,24.19q-5-15.84-10.2-32.11C1636.58,122.76,1576-68,1574.36-72.89L1519.82,67.77c21.88,8.2,45,15.65,57.71,14.71l-8.08,42.23s-33.12-7-64.38-18.91l-37.93,97.83L1453,240.14l-19.61,50.55c67,1.43,132.07-1.8,132.07-1.8-28.6,31-94.29,43.36-150,48.08Z"/><path class="cls-9" d="M751.33,500.19,743,663.64l-8.84,53.77c10.2,2,20.43,4,30.56,6l4-109.84-8-86.62c20.05,41,46.81,57.31,73.24,61-12.37-23.21-13.77-52.49-13.77-52.49,12.45,44.54,55.57,49.35,55.57,49.35A156.41,156.41,0,0,0,900.36,576l-13.53-98.89L884,463c-52.33-23.75-101.48-59-102.55-60,22.2,19.17,64.75,24,98.6,24.53l-11-60.8h0c-29.94-11-51.78-49.94-52.15-50.37a169.33,169.33,0,0,0,49.91,14.71l-12.39-90.5L774.4,248l5.26-27.6,70.57-10.66-3.62-26.46c-6-2.75-33.74-17.61-46.61-28.3-20.66-17.16,28.67-23,28.67-23l11.69,5.61L775.38-337,760.66-179.48S708.56,38.05,657,254.33c23.86-3.17,51.7-8.75,51.7-8.75-9.44,5.81-38.14,11.39-53,14.35q-3.18,13.31-6.34,26.6c46.51,0,92.71-8.39,92.71-8.39-29.37,26.14-67.88,36.74-100.41,40.66l-16.35,68.58L677,376.21A137.79,137.79,0,0,0,707.75,336a139.88,139.88,0,0,1-7.32,35.11l55.43-12-5.61,71.31L612.42,441.16c-9.19,38.62-17.75,74.67-25.28,106.49C621.77,569.65,677.31,578.34,751.33,500.19Z"/><path class="cls-9" d="M93.22,362.62,118,524.39l2.18,54.45,31.13-.28L133.07,470.17,107.74,387c27.91,36.16,57.4,46.7,84,45-16.8-20.23-24.06-48.63-24.06-48.63,21.16,41.11,64.37,37.14,64.37,37.14a157.39,157.39,0,0,0,22.37-13.65l-33.19-94.14h0C165.22,300,104.39,262.16,103.14,261.38c25.61,14.3,68.27,10.49,101.51,4.16l-24.42-69.3h0c-31.54-4.73-59.35-26.52-59.8-26.88a169.54,169.54,0,0,0,51.86,4.36L141.92,87.57,65,111l-.41-28.1,67-24.65L122.69,33c-6.38-1.5-17.63-5-32.38-12.85-23.7-12.65,4.48-33.77,4.48-33.77l12.58,3.14L-51.9-462.24-34.59-305s-7.2,223.56-14.18,445.81c22.73-7.91,48.88-19,48.88-19-8.07,7.58-35.06,18.84-49.06,24.73q-.42,13.68-.86,27.34C-4.24,164.54,39.32,147,39.32,147c-23.5,31.52-59.09,49.67-90.16,60.05-.75,23.88-1.48,47.46-2.19,70.48l48.46-21.38a137.7,137.7,0,0,0,22-45.54,139.83,139.83,0,0,1-.09,35.87L69.24,223.6l8.88,71L-54.74,332.8C-56,372.47-57.08,409.51-58,442.19-19.69,456.76,36.46,454.08,93.22,362.62Z"/><polygon class="cls-10" points="165.43 639.94 57.08 -107.72 8.22 -119.67 108.22 643.33 165.43 639.94"/><polygon class="cls-10" points="1558.54 667.94 1602.19 -95.72 1553.33 -107.67 1501.33 671.33 1558.54 667.94"/><polygon class="cls-10" points="741.04 645.82 810.69 -117.84 770 -125 692 654 741.04 645.82"/></g><g id="Layer_1" data-name="Layer 1"><path class="cls-11" d="M-93.5,575h2072l27,575.5s-2152-.86-2152,0S-93.5,575-93.5,575Z"/><path class="cls-12" d="M907,906s179,39,372,15,680,130,680,130,99,139,87,138-954,39-954,39l-347-94Z"/><polygon class="cls-12" points="-185 540 489.57 577.42 595 1308 -185 1176 -185 540"/><ellipse class="cls-13" cx="1935.5" cy="804.5" rx="479.5" ry="148.5"/><path class="cls-13" d="M1603.09,772C1501,762,1346,793,1194,744s407.17-40.69,409.09-39.84,0,67.84,0,67.84"/><ellipse class="cls-14" cx="1737" cy="939.5" rx="108" ry="101.5"/><ellipse class="cls-13" cx="1759" cy="979.57" rx="76" ry="71.43"/><ellipse class="cls-13" cx="1875" cy="1038.5" rx="138" ry="117.5"/><ellipse class="cls-13" cx="1665" cy="1028.5" rx="108" ry="101.5"/><polygon class="cls-13" points="981.87 575 679.96 574.72 729 644 900 695 1241 665 1368.65 574.72 981.87 575"/><path class="cls-13" d="M821,680c0,40,299.23,51,450,51s271-43.46,271-83.5S1419.77,575,1269,575,821,640,821,680Z"/><ellipse class="cls-13" cx="1032.5" cy="802" rx="86.5" ry="23"/><path class="cls-15" d="M1038,563.5a75.5,75.5,0,0,1,151,0c0,41.7-33.3,44.5-75,44.5S1038,605.2,1038,563.5Z"/><ellipse class="cls-15" cx="951" cy="563" rx="77" ry="66"/><ellipse class="cls-15" cx="906" cy="585" rx="68" ry="57"/><ellipse class="cls-15" cx="1027.5" cy="570" rx="54.5" ry="47"/><path class="cls-15" d="M1222.21,635h-188a11.56,11.56,0,0,1-9.23-18.54c20.15-26.38,58.83-44.22,103.23-44.22s83.07,17.84,103.22,44.22A11.56,11.56,0,0,1,1222.21,635Z"/><path class="cls-16" d="M1391,604h-188a11.56,11.56,0,0,1-9.23-18.54c20.15-26.38,58.82-44.22,103.22-44.22s83.08,17.84,103.23,44.22A11.56,11.56,0,0,1,1391,604Z"/><path class="cls-16" d="M1030.21,645h-188A11.56,11.56,0,0,1,833,626.46c20.15-26.38,58.83-44.22,103.23-44.22s83.07,17.84,103.22,44.22A11.56,11.56,0,0,1,1030.21,645Z"/><circle class="cls-15" cx="1194.5" cy="583.5" r="35.5"/></g><g id="Layer_7" data-name="Layer 7"><ellipse class="cls-15" cx="1433.28" cy="608.27" rx="102.28" ry="90.73"/><ellipse class="cls-15" cx="1495" cy="506.84" rx="90" ry="80.16"/><ellipse class="cls-14" cx="1552.04" cy="506.5" rx="74.57" ry="82.02" transform="translate(890.86 1999.21) rotate(-84.18)"/><ellipse class="cls-14" cx="1509.5" cy="600.5" rx="123.5" ry="101.5"/></g><g id="Layer_5" data-name="Layer 5"><circle class="cls-15" cx="1794" cy="389" r="56"/><ellipse class="cls-15" cx="1680" cy="400.5" rx="54" ry="60.5"/><circle class="cls-15" cx="1734.5" cy="394.5" r="70.5"/><ellipse class="cls-13" cx="394" cy="859.5" rx="71" ry="14.5"/><path class="cls-17" d="M53,450S8,497,5,502s-17,9-17,9l48-59,17-2"/><path class="cls-18" d="M146.82,431.59c14.39-5.22,35.09-11.79,46.06-17.08,1.46-.7,3.53,0,5,1.68L345.69,522c1.54,1.76,2,4.09,1.13,5.56l-70.48,76.22c-1.22,2-4.37,1.5-6.33-1L145,440.91C143.08,438.45,144.69,432.37,146.82,431.59Z"/><path class="cls-18" d="M15.73,369.34l-62.3,55.32a5,5,0,0,0-1.32,2l-67.84,197.1a5,5,0,0,0,5.67,6.44l46.36-9.35a4.92,4.92,0,0,0,3.7-3.23L23.77,374.56A5,5,0,0,0,15.73,369.34Z"/><path class="cls-17" d="M75.35,718.59C48.11,697.45-85.83,650.34-109,635a7.92,7.92,0,0,1-3.05-9.36L16.62,373.38a8,8,0,0,1,8.81-5.08l199.18,33.89a7.93,7.93,0,0,1,5.86,11.21l-143,302.32A8,8,0,0,1,75.35,718.59Z"/><path class="cls-19" d="M438,507.31l-79.93-32.18a4.91,4.91,0,0,0-2.4-.33L147.84,497.71a4.93,4.93,0,0,0-3.42,7.85l28.25,37.81a5,5,0,0,0,4.51,2l259.5-28.53A4.93,4.93,0,0,0,438,507.31Z"/><path class="cls-17" d="M143.29,710.37c7.57-33.56,24.09-144.11,28.15-171.53a7.93,7.93,0,0,1,7.19-6.74l252.93-21.88a8,8,0,0,1,8.36,5.78L494.1,710a7.94,7.94,0,0,1-7.67,10.07H151.06A8,8,0,0,1,143.29,710.37Z"/><path class="cls-20" d="M2,551s24-66,40-81,39-62,39-62a142.66,142.66,0,0,1-6,38c-6,19,36,16,41,3s25,1,31-17,22,1,9,16-34,84-34,84L41.75,563.53Z"/><path class="cls-20" d="M111.17,577.62c-2-7-27.08-17-39.11-23s-14.05-7-24.07,12-18.06-16-18.06-16-21.06,3-29.08,19-56.17,102-56.17,102,75.22,46,85.25,44,113.34-99,113.34-99Z"/><ellipse class="cls-14" cx="67.06" cy="552.44" rx="38.54" ry="40.71" transform="matrix(0.94, -0.34, 0.34, 0.94, -181.68, 54.63)"/><ellipse class="cls-14" cx="9.12" cy="588.7" rx="50.62" ry="53.48" transform="matrix(0.94, -0.34, 0.34, 0.94, -197.22, 37.27)"/><ellipse class="cls-13" cx="66.76" cy="604.62" rx="50.42" ry="47.48" transform="translate(-489.06 357.46) rotate(-59.73)"/><ellipse class="cls-13" cx="122.28" cy="551.37" rx="50.42" ry="47.48" transform="translate(-415.54 379.01) rotate(-59.73)"/><ellipse class="cls-13" cx="7.26" cy="664.2" rx="65.55" ry="61.23" transform="translate(-578.19 350.41) rotate(-61.18)"/><path class="cls-18" d="M145.27,498.65c10.88,10.75,25.67,26.61,35.15,34.24,1.26,1,1.51,3.17.61,5.23L148,716.48c-.94,2.13-2.86,3.56-4.57,3.39l-99.22-31c-2.36-.24-3.23-3.3-1.76-6.15L136,501C137.46,498.2,143.66,497.06,145.27,498.65Z"/><path class="cls-21" d="M350.71,517.21s-28.08-16.54-39-19.55-7.93,5-5.93,7-25.07-8-29.08-7,7,13,9,13-18.05-1-22.06-4,11.87,17.07,11.87,17.07l75.21-6.51"/><path class="cls-19" d="M219.25,405.36,180.87,492.3a7.47,7.47,0,0,0,3.24,9.38h0a6.08,6.08,0,0,0,8.46-3.39L231,411.35a7.46,7.46,0,0,0-3.23-9.38h0A6.1,6.1,0,0,0,219.25,405.36Z"/><path class="cls-19" d="M226.12,401.65l-137-22.57a7.47,7.47,0,0,0-8.26,5.49h0a6.1,6.1,0,0,0,5.41,7.34l137.06,22.58a7.45,7.45,0,0,0,8.25-5.49h0A6.09,6.09,0,0,0,226.12,401.65Z"/><path class="cls-22" d="M226.12,401.65l-45.05-7.57a7.47,7.47,0,0,0-8.26,5.49h0a6.1,6.1,0,0,0,5.41,7.34l45.06,7.58a7.45,7.45,0,0,0,8.25-5.49h0A6.09,6.09,0,0,0,226.12,401.65Z"/><path class="cls-19" d="M135,500.18,70.77,622.67a7.46,7.46,0,0,0,2.34,9.64h0a6.1,6.1,0,0,0,8.75-2.58l64.21-122.5a7.45,7.45,0,0,0-2.35-9.64h0A6.09,6.09,0,0,0,135,500.18Z"/><path class="cls-18" d="M1796.48,445.76c20.17-6.65,49.2-15,64.58-21.74,2-.9,4.94,0,7,2.14L2075.3,560.85c2.15,2.24,2.82,5.21,1.57,7.09l-98.8,97c-1.71,2.57-6.12,1.92-8.88-1.32l-175.29-206C1791.23,454.49,1793.49,446.75,1796.48,445.76Z"/><path class="cls-18" d="M1614.09,362.7l-88.75,74.24a6.26,6.26,0,0,0-1.85,2.58l-95.11,250.89c-1.73,4.59,2.69,9.15,7.95,8.19l65-11.89a6.77,6.77,0,0,0,5.19-4.12l118.84-313.24C1627.7,363.18,1619.38,358.28,1614.09,362.7Z"/><path class="cls-17" d="M1696.27,811.07c-38.18-26.9-226-86.87-258.44-106.41a9.6,9.6,0,0,1-4.28-11.91l180.39-321.09c1.86-4.56,7-7.27,12.35-6.45l279.24,43.13c7.29,1.13,11.38,8.22,8.23,14.27l-200.52,384.8C1710.19,813.28,1701.92,815.05,1696.27,811.07Z"/><ellipse class="cls-14" cx="1670" cy="388" rx="22" ry="19"/><ellipse class="cls-14" cx="1699.5" cy="381" rx="29.5" ry="22"/><ellipse class="cls-14" cx="1783" cy="558.5" rx="49" ry="47.5"/><circle class="cls-14" cx="1823.5" cy="565.5" r="64.5"/><path class="cls-19" d="M2204.7,542.15l-112.06-41a7.65,7.65,0,0,0-3.36-.42l-291.37,29.16c-5.33.53-8,6.1-4.8,10L1832.72,588a7.29,7.29,0,0,0,6.32,2.49l363.82-36.32C2210,553.5,2211.39,544.59,2204.7,542.15Z"/><path class="cls-17" d="M1791.52,800.61c10.62-42.72,33.79-183.43,39.48-218.34.75-4.63,4.92-8.17,10.08-8.58l354.6-27.85c5.36-.42,10.29,2.68,11.73,7.36l76,246.93c2,6.44-3.37,12.81-10.76,12.81H1802.42C1795.25,812.94,1790,806.94,1791.52,800.61Z"/><path class="cls-20" d="M1746.5,631.64c-2.81-8.91-38-21.63-54.84-29.27s-19.69-8.9-33.75,15.27-25.31-20.36-25.31-20.36-29.53,3.82-40.78,24.18-78.75,129.77-78.75,129.77,105.47,58.53,119.53,56,158.9-126,158.9-126Z"/><ellipse class="cls-15" cx="1718.9" cy="625.85" rx="44" ry="38.5" transform="translate(251.88 1718.63) rotate(-56.69)"/><ellipse class="cls-15" cx="1742.86" cy="600.31" rx="45.5" ry="36.5" transform="translate(284.02 1727.14) rotate(-56.69)"/><ellipse class="cls-15" cx="1704.83" cy="659.09" rx="41.5" ry="32" transform="translate(217.77 1721.86) rotate(-56.69)"/><path class="cls-18" d="M1794.31,531.12c15.25,13.68,36,33.87,49.28,43.58,1.76,1.29,2.11,4,.85,6.66l-46.28,227c-1.31,2.72-4,4.53-6.41,4.31l-139.11-39.49c-3.3-.3-4.52-4.2-2.46-7.83l131.17-231.31C1783.35,530.55,1792.05,529.1,1794.31,531.12Z"/><rect class="cls-19" x="1626.81" y="606.53" width="198" height="17.95" rx="8.98" transform="translate(329.86 1802.35) rotate(-60)"/><path class="cls-18" d="M-8.57,473C-5,470,24,434,28,424c0,0,8,22,8,28s-43,52-47,58,2.43-37,2.43-37"/><path class="cls-19" d="M28,424s15,9,23,7,11,0,11,0l-9,19-17,2-8-28"/><path class="cls-20" d="M28,515c-2-1-11.78-24.78-11.78-24.78S43,462,47,458s12-6,12-6L32,512Z"/><path class="cls-16" d="M170.07,731H9.26a9.89,9.89,0,0,1-7.9-15.86c17.24-22.56,50.32-37.83,88.3-37.83s71.07,15.27,88.31,37.83A9.89,9.89,0,0,1,170.07,731Z"/><path class="cls-11" d="M361.5,865H298.87c-3.19,0-5-2.79-3.08-4.73,6.71-6.72,19.6-11.27,34.39-11.27s27.68,4.55,34.4,11.27C366.51,862.21,364.68,865,361.5,865Z"/><path class="cls-11" d="M435.15,857H339.29a5.9,5.9,0,0,1-4.7-9.46c10.27-13.44,30-22.54,52.63-22.54s42.36,9.1,52.64,22.54A5.9,5.9,0,0,1,435.15,857Z"/><path class="cls-13" d="M321.41,736H128.89a11.85,11.85,0,0,1-9.46-19c20.64-27,60.25-45.28,105.72-45.28S310.22,690,330.86,717A11.84,11.84,0,0,1,321.41,736Z"/><rect class="cls-18" x="360.22" y="852.03" width="13.54" height="26.4" rx="6.77" transform="translate(1232.22 498.24) rotate(90)"/><rect class="cls-17" x="356.5" y="846.28" width="13.54" height="26.4" rx="6.77" transform="translate(854.8 66.34) rotate(54.7)"/><rect class="cls-19" x="369" y="851" width="14" height="14" rx="7"/><path class="cls-20" d="M1568.13,453.2S1566,488,1577,483s0,37,0,39-36,53-41,55-26,36-27,53,4.07,35.31,4.07,35.31-38.36,27.69-41.71,27.19-26.3-20.24-26.3-20.24L1565.8,457.34"/><path class="cls-16" d="M1495.35,716h-134.8a8.29,8.29,0,0,1-6.62-13.3c14.45-18.91,42.18-31.7,74-31.7s59.57,12.79,74,31.7A8.29,8.29,0,0,1,1495.35,716Z"/><path class="cls-15" d="M1589.39,739h-188a11.56,11.56,0,0,1-9.23-18.54c20.15-26.38,58.82-44.22,103.22-44.22s83.07,17.84,103.22,44.22A11.56,11.56,0,0,1,1589.39,739Z"/><ellipse class="cls-15" cx="1537" cy="692.5" rx="44" ry="38.5"/><ellipse class="cls-15" cx="1571.5" cy="698.5" rx="45.5" ry="36.5"/><ellipse class="cls-15" cx="1501.5" cy="699" rx="41.5" ry="32"/><path class="cls-16" d="M1664.39,776H1471.87a11.84,11.84,0,0,1-9.45-19c20.63-27,60.24-45.28,105.71-45.28S1653.21,730,1673.84,757A11.84,11.84,0,0,1,1664.39,776Z"/></g><g id="Layer_14" data-name="Layer 14"><rect class="cls-23" x="713.18" y="-312.34" width="107.17" height="1189" transform="translate(170.44 -276.35) rotate(22.92)"/><rect class="cls-24" x="102" y="-300" width="160" height="1189" transform="translate(129.07 -47.63) rotate(22.92)"/></g><g id="tree"><path class="cls-8" d="M1828.37,765.18l-42.93,324-25.29,105.47c18.32,5.88,36.68,11.76,54.87,17.58l25.87-218.05v-174c29.71,85.45,75.9,122.79,123.61,135.08-18.7-48.5-16.28-107.08-16.28-107.08,15.2,91,93.27,108.56,93.27,108.56a269.77,269.77,0,0,0,46.6-13.11l-8-199.47h0c-91.69-57-178.38-164.72-180.16-166.94,37.35,42.28,114.35,59.83,176.17,67.06l-5.88-146.82h0c-52.89-27.41-90.11-85.31-90.71-86.25.76.52,37.24,25.64,88.8,38.53L2061,267.18H1913.34l14.31-54L2058.53,205l-2.14-53.37c-10.41-6.59-28.31-19.79-50-43.45-34.88-38,25.94-62,25.94-62l20.42,13.32L2014.4-897.82l-53.66,311s-132.2,423.63-263.29,844.87C1741.63,256.14,1807,225,1807,225c-22,37-85.18,40.82-113,43.95q-8.05,25.94-16.11,51.81c85.07,8.61,171,.42,171,.42-58.15,46.64-130.4,60.65-190.55,62.43-14.08,45.25-28,90-41.54,133.59l96.6-12.69c41.7-33.85,63-74.33,63-74.33a298.75,298.75,0,0,1-19.34,68.59l103.41-13.59-22.36,141L1584.31,622C1561,697.17,1539.18,767.39,1520,829.36,1579.62,879.59,1730,840,1828.37,765.18Z"/><path class="cls-25" d="M1865.89,340.18c-8.94,4-68,70-123.42,95,0,0,173.51-33,173.51-37S1865.89,340.18,1865.89,340.18Z"/><path class="cls-25" d="M1973.71,55.68s-124.32,1025-136,1271h-95.69s81.38-837,173.5-1300S1973.71,55.68,1973.71,55.68Z"/><path class="cls-25" d="M1895.45,306.18S1965,449.34,2071.09,518.76h0l2.35,58.67s-152-79.25-178-127.25S1895.45,306.18,1895.45,306.18Z"/><path class="cls-25" d="M1947.32,58.18s-89.58,78.48-226.8,125.74h0L1714,205s134.71-14,200-57S1947.32,58.18,1947.32,58.18Z"/><path class="cls-8" d="M526,632l48,324,28.28,105.47c-20.48,5.88-41,11.76-61.35,17.58L512,861V687c-33.21,85.45-84.86,122.79-138.2,135.08C394.7,773.58,392,715,392,715c-17,91-104.28,108.56-104.28,108.56a329.7,329.7,0,0,1-52.11-13.11L244.53,611h0C347.05,554,444,446.25,446,444c-41.76,42.28-127.85,59.83-197,67.06l6.57-146.82h0C314.71,336.85,356.32,279,357,278c-.85.52-41.64,25.64-99.28,38.53L265.88,134H431L415,80,268.66,71.82l2.39-53.37C282.69,11.86,302.71-1.34,327-25c39-38-29-62-29-62L275.17-73.68,318-1031l60,311S525.81-296.37,672.38,124.87C623,123,565,117,565,117c20.39,9.82,80.14,15.64,111.18,18.77q9,25.93,18,51.81C599.08,196.19,503,188,503,188c65,46.64,145.8,60.65,213.06,62.43,15.74,45.25,31.28,90,46.44,133.59l-108-12.69C607.87,337.48,584,297,584,297a274.91,274.91,0,0,0,21.62,68.59L490,352l25,141,283.88-4.23C825,564,849.35,634.21,870.79,696.18,804.13,746.41,692.21,774,526,632Z"/><path class="cls-25" d="M512,167c10,4,76,70,138,95,0,0-194-33-194-37S512,167,512,167Z"/><path class="cls-8" d="M691.32,808.12,678,913.28c-46.74,51.3-137.31,37.22-203.45,17.18l77.09-127.8C624.92,835.08,670.38,820.22,691.32,808.12Z"/><path class="cls-25" d="M363.5-77.5s139,1025,152,1271h107s-91-837-194-1300S363.5-77.5,363.5-77.5Z"/><path class="cls-25" d="M451,173S373.23,316.15,254.62,385.58h0L252,444.24S422,365,451,317,451,173,451,173Z"/><path class="cls-25" d="M393-75S493.17,3.48,646.58,50.74h0L664.42,102S505,82,432,39,393-75,393-75Z"/><path class="cls-25" d="M409,92c-5,5-59,52-89,56,0,0,83,7,94-15S409,92,409,92Z"/><path class="cls-8" d="M907,906c-18,20-146,45-205-16l-5.37-85.22A53.72,53.72,0,0,0,705,798V748c-25.08,15-79.36,10.53-122.5,3.57L600.38,722C693,568.46,799.19,392.5,802,388l30.2,148.4c-25.65,3.94-52.45,6.92-66.2,3.6v43s37.69-.69,74.36-6.47l21,103.21,7.83,38.52,10.86,53.34C806.46,760.4,736,745,736,745c24.78,35.85,94,60.31,154,75.42Z"/><path class="cls-25" d="M714,772l-9-.07V748c-25.08,15-79.36,10.53-122.5,3.57L600.38,722c38.77,3.07,94.22,5.44,113.62-4C745,703,720,772,714,772Z"/><path class="cls-25" d="M559,1325l43,17S744.75,840.08,777.42,537C802,309,606.79,1178.74,559,1325Z"/><path class="cls-25" d="M869.2,718.26c-52.64-14.91-112.74-35-126.2-52.26-25-32,18-38,18-38s47.42,33.11,100.37,51.74Z"/><path class="cls-25" d="M747,586s-29.94,14-62.47-3.5h0l-6.84,11.33S732,610,745,597,747,586,747,586Z"/></g><g id="Layer_3" data-name="Layer 3"><ellipse class="cls-14" cx="222.81" cy="949.92" rx="93.98" ry="90.74" transform="translate(-739.71 1109.76) rotate(-86.23)"/><ellipse class="cls-14" cx="66.55" cy="912.52" rx="123.45" ry="119.19" transform="translate(-848.37 918.89) rotate(-86.23)"/><ellipse class="cls-13" cx="138.55" cy="1034.52" rx="111.09" ry="117.13" transform="translate(-902.84 1104.71) rotate(-86.23)"/><ellipse class="cls-13" cx="318.01" cy="1040.18" rx="111.09" ry="117.13" transform="translate(-740.84 1289.07) rotate(-86.23)"/><ellipse class="cls-13" cx="-57.8" cy="1032.54" rx="152" ry="143.5"/><ellipse class="cls-14" cx="789.61" cy="1005.88" rx="93.98" ry="90.74" transform="translate(-266.04 1727.6) rotate(-86.23)"/><ellipse class="cls-14" cx="633.35" cy="968.48" rx="123.45" ry="119.19" transform="translate(-374.7 1536.74) rotate(-86.23)"/><ellipse class="cls-13" cx="705.35" cy="1090.48" rx="111.09" ry="117.13" transform="translate(-429.17 1722.55) rotate(-86.23)"/><ellipse class="cls-13" cx="884.81" cy="1096.14" rx="111.09" ry="117.13" transform="translate(-267.17 1906.92) rotate(-86.23)"/><ellipse class="cls-13" cx="509" cy="1088.5" rx="152" ry="143.5"/></g><g id="Layer_4" data-name="Layer 4"><path class="cls-18" d="M754.46,904.91c-14.35-5.23-35-11.79-45.93-17.09-1.45-.7-3.51,0-5,1.69L556.18,995.37c-1.53,1.75-2,4.09-1.12,5.56l70.26,76.25c1.22,2,4.36,1.5,6.32-1l124.65-161.9C758.19,911.77,756.58,905.68,754.46,904.91Z"/><path class="cls-18" d="M884.16,839.63,947.27,898a4.87,4.87,0,0,1,1.32,2l67.63,197.19a4.93,4.93,0,0,1-5.64,6.44l-46.23-9.35a4.92,4.92,0,0,1-3.69-3.23L876.15,844.86A4.93,4.93,0,0,1,884.16,839.63Z"/><path class="cls-17" d="M825.72,1192c27.15-21.15,120.16-83.21,143.25-98.57a7.93,7.93,0,0,0,3-9.36L884.27,846.67a7.94,7.94,0,0,0-8.78-5.08L676.91,875.5a7.94,7.94,0,0,0-5.85,11.21l142.59,302.45A8,8,0,0,0,825.72,1192Z"/><path class="cls-19" d="M464.16,980.66l79.69-32.19a4.87,4.87,0,0,1,2.39-.33l207.2,22.91a4.94,4.94,0,0,1,3.42,7.86l-28.17,37.82a4.94,4.94,0,0,1-4.5,2L465.46,990.15A4.94,4.94,0,0,1,464.16,980.66Z"/><path class="cls-17" d="M758,1183.81c-7.55-33.58-24-144.17-28.07-171.61a7.93,7.93,0,0,0-7.17-6.74L470.57,983.57a8,8,0,0,0-8.34,5.78l-54,194.08a7.94,7.94,0,0,0,7.65,10.07H750.24A7.94,7.94,0,0,0,758,1183.81Z"/><path class="cls-20" d="M790,1051c2-7,27-17,39-23s14-7,24,12,18-16,18-16,21,3,29,19,56,102,56,102-75,46-85,44-113-99-113-99Z"/><path class="cls-18" d="M756,972c-10.85,10.75-25.59,26.62-35,34.25-1.26,1-1.51,3.18-.61,5.23l32.91,178.44c.94,2.14,2.85,3.56,4.56,3.39l98.93-31c2.34-.24,3.21-3.3,1.75-6.15l-93.28-181.8C763.79,971.55,757.61,970.41,756,972Z"/><path class="cls-21" d="M551.17,990.57s28-16.55,38.92-19.56,7.91,5,5.91,7,25-8,29-7-7,13-9,13,18-1,22-4-11.84,17.07-11.84,17.07l-75-6.5"/><ellipse class="cls-14" cx="1085.54" cy="1003.69" rx="97.46" ry="97.69"/><ellipse class="cls-14" cx="971.1" cy="1018.34" rx="85.01" ry="85.04"/><ellipse class="cls-13" cx="1204.17" cy="1088.54" rx="85.01" ry="85.04"/><ellipse class="cls-13" cx="972.5" cy="1123.07" rx="119.5" ry="105.01"/><circle class="cls-13" cx="1086" cy="1041" r="93"/></g><g id="Layer_16" data-name="Layer 16"><rect class="cls-26" x="158.32" y="-124.38" width="256.95" height="1601.09" transform="translate(285.99 -58.31) rotate(22.92)"/><rect class="cls-27" x="1006.32" y="-88.42" width="160" height="1392.48" transform="translate(322.5 -375.09) rotate(22.92)"/></g><g id="Layer_6" data-name="Layer 6"><rect class="cls-28" x="-541" y="-1209" width="3074" height="1209"/><rect class="cls-28" x="-541" y="1078" width="3039" height="565"/></g></g></svg>